<svg width="38" height="43" viewBox="0 0 38 43" fill="none" xmlns="http://www.w3.org/2000/svg">
<path d="M0.148926 0.45726C0.148926 0.854721 3.44218 38.0572 3.49896 38.3638C3.54439 38.5568 4.55508 38.8634 11.3006 40.7258L19.0568 42.8494L26.7221 40.7145C33.9446 38.7045 34.3874 38.5682 34.4669 38.307C34.5578 38.0345 37.851 1.08184 37.851 0.45726V0.150646H19H0.148926V0.45726ZM36.8858 1.64965C36.8517 1.97897 36.1136 10.2462 35.2392 20.0124C34.3761 29.7786 33.6152 37.8073 33.5698 37.8528C33.5244 37.8982 30.2084 38.8294 26.2111 39.9309L18.9432 41.9296L11.6753 39.9082L4.40745 37.8868L4.3166 37.3304C4.27118 37.0238 3.54439 28.9837 2.70404 19.4559C1.86369 9.92821 1.1369 1.89948 1.10283 1.59286L1.0347 1.05913H19H36.9539L36.8858 1.64965Z" fill="#212121"/>
<path d="M6.99663 8.40649C7.0307 8.71311 7.32596 12.0291 7.65529 15.7879L8.25716 22.6356H16.1723C20.5103 22.6356 24.0989 22.6583 24.1216 22.6811C24.1784 22.7378 23.7582 27.7686 23.7014 27.8481C23.6446 27.9162 19.2044 29.1086 19 29.1086C18.7842 29.1086 14.4235 27.9503 14.3213 27.8708C14.2872 27.8367 14.1964 27.1326 14.1282 26.3264C14.0601 25.5087 13.9693 24.6797 13.9352 24.4753L13.8784 24.1119H11.1643H8.43885V24.3731C8.43885 24.7592 9.10886 32.0839 9.14293 32.1179C9.23378 32.1974 18.7502 34.8093 18.9546 34.8093C19.0908 34.8093 21.3734 34.2075 24.0421 33.4693C28.4142 32.2656 28.8798 32.1179 28.8798 31.9022C28.8911 31.7659 29.1864 28.4045 29.5384 24.4185L30.1857 17.1847H21.7595H13.3333L13.2765 16.81C13.2084 16.4125 12.9813 13.8006 12.9813 13.5054C12.9813 13.335 13.8103 13.3237 21.7595 13.3237H30.5491L30.7422 10.9616C30.8444 9.66702 30.9693 8.44056 31.0033 8.23615L31.0601 7.87276H19H6.9285L6.99663 8.40649ZM30.004 9.14464C30.004 9.34904 29.9359 10.1553 29.8677 10.9389L29.7315 12.3584L20.8737 12.4152L12.016 12.472L12.0387 12.8126C12.1636 14.4706 12.4362 17.639 12.4816 17.832L12.527 18.0932H20.8851H29.2432L29.1864 18.5702C29.1409 18.8427 28.8798 21.818 28.5845 25.1907C28.2892 28.5635 28.0167 31.3571 27.9826 31.4025C27.9031 31.482 19.3066 33.8895 19.0113 33.9008C18.8751 33.9122 10.0514 31.5161 9.96057 31.4479C9.94921 31.4366 9.83565 30.1533 9.69938 28.5976C9.5631 27.0304 9.42683 25.5882 9.39276 25.3838L9.33598 25.0204H11.2097H13.0835L13.1403 25.4974C13.1743 25.7699 13.2538 26.5421 13.322 27.2348C13.3787 27.9162 13.4696 28.5067 13.5264 28.5521C13.6399 28.6657 18.6934 30.0171 18.9886 30.0171C19.2612 30.0171 24.36 28.6543 24.4736 28.5521C24.5304 28.5067 25.1323 22.4312 25.1323 21.9202C25.1323 21.8748 21.5324 21.8407 17.1262 21.8407C12.7201 21.8407 9.12022 21.8294 9.10886 21.8066C9.10886 21.7953 8.83632 18.8541 8.50699 15.2769L7.92783 8.78124H18.9659H30.0154L30.004 9.14464Z" fill="#212121"/>
</svg>
