<svg width="50" height="55" viewBox="0 0 50 55" fill="none" xmlns="http://www.w3.org/2000/svg">
<circle cx="20.6645" cy="51.5178" r="2.5" transform="rotate(-115.671 20.6645 51.5178)" fill="#737373"/>
<circle cx="15.0328" cy="39.801" r="2.5" transform="rotate(-115.671 15.0328 39.801)" fill="#737373"/>
<circle cx="9.40115" cy="28.0841" r="2.5" transform="rotate(-115.671 9.40115 28.0841)" fill="#737373"/>
<circle cx="3.76946" cy="16.3673" r="2.5" transform="rotate(-115.671 3.76946 16.3673)" fill="#737373"/>
<circle cx="33.2826" cy="45.4529" r="2.5" transform="rotate(-115.671 33.2826 45.4529)" fill="#737373"/>
<circle cx="27.651" cy="33.7361" r="2.5" transform="rotate(-115.671 27.651 33.7361)" fill="#737373"/>
<circle cx="22.0193" cy="22.0193" r="2.5" transform="rotate(-115.671 22.0193 22.0193)" fill="#737373"/>
<circle cx="16.3876" cy="10.3024" r="2.5" transform="rotate(-115.671 16.3876 10.3024)" fill="#737373"/>
<circle cx="45.9008" cy="39.388" r="2.5" transform="rotate(-115.671 45.9008 39.388)" fill="#737373"/>
<circle cx="40.2691" cy="27.6712" r="2.5" transform="rotate(-115.671 40.2691 27.6712)" fill="#737373"/>
<circle cx="34.6374" cy="15.9544" r="2.5" transform="rotate(-115.671 34.6374 15.9544)" fill="#737373"/>
<circle cx="29.0057" cy="4.23754" r="2.5" transform="rotate(-115.671 29.0057 4.23754)" fill="#737373"/>
</svg>
