<svg width="58" height="60" viewBox="0 0 58 60" fill="none" xmlns="http://www.w3.org/2000/svg">
<path d="M57 16.8182L29 1L1 16.8182V43.1818L29 59L57 43.1818V16.8182Z" stroke="#212121"/>
<path d="M27.8008 30.5195C27.4753 30.5456 27.2083 30.5911 27 30.6562C26.8047 30.7083 26.6484 30.7995 26.5312 30.9297C26.4271 31.0469 26.3555 31.2161 26.3164 31.4375C26.2773 31.6458 26.2578 31.9128 26.2578 32.2383V36.75C26.0365 36.9453 25.7109 37.1406 25.2812 37.3359C24.8516 37.5182 24.3698 37.6875 23.8359 37.8438C23.3151 37.987 22.7747 38.0977 22.2148 38.1758C21.668 38.2669 21.1536 38.3125 20.6719 38.3125C19.4349 38.3125 18.2891 38.1107 17.2344 37.707C16.1927 37.3034 15.3008 36.7109 14.5586 35.9297C13.9336 35.2656 13.4714 34.5104 13.1719 33.6641C12.8724 32.8177 12.7227 31.8542 12.7227 30.7734C12.7227 29.6276 12.9115 28.5794 13.2891 27.6289C13.6667 26.6654 14.1875 25.8385 14.8516 25.1484C15.5286 24.4583 16.3294 23.918 17.2539 23.5273C18.1914 23.1367 19.2201 22.9414 20.3398 22.9414C21.3555 22.9414 22.3711 23.1107 23.3867 23.4492C23.8164 23.6055 24.1484 23.6836 24.3828 23.6836C24.6172 23.6836 24.8255 23.612 25.0078 23.4688C25.1901 23.3255 25.3138 23.1497 25.3789 22.9414H25.8477L26.043 27.6484H25.5352C25.3919 27.3099 25.2617 27.0169 25.1445 26.7695C25.0273 26.5091 24.9036 26.2812 24.7734 26.0859C24.6562 25.8776 24.5326 25.6953 24.4023 25.5391C24.2721 25.3698 24.1224 25.207 23.9531 25.0508C23.0677 24.2305 21.9935 23.8203 20.7305 23.8203C19.9232 23.8203 19.1745 23.9766 18.4844 24.2891C17.8073 24.6016 17.2279 25.0508 16.7461 25.6367C16.2904 26.1966 15.9258 26.9388 15.6523 27.8633C15.3789 28.7747 15.2422 29.7318 15.2422 30.7344C15.2422 31.776 15.3789 32.7135 15.6523 33.5469C15.9258 34.3672 16.3164 35.0638 16.8242 35.6367C17.332 36.2096 17.944 36.6523 18.6602 36.9648C19.3893 37.2773 20.2096 37.4336 21.1211 37.4336C21.5247 37.4336 21.9023 37.401 22.2539 37.3359C22.6185 37.2578 22.9375 37.1602 23.2109 37.043C23.4844 36.9258 23.6992 36.7891 23.8555 36.6328C24.0117 36.4635 24.0898 36.2878 24.0898 36.1055V32.4922C24.0898 32.0885 24.0703 31.763 24.0312 31.5156C23.9922 31.2682 23.901 31.0794 23.7578 30.9492C23.6276 30.806 23.4323 30.7083 23.1719 30.6562C22.9115 30.5911 22.5599 30.5456 22.1172 30.5195V30.1094H27.8008V30.5195ZM44.7812 38H41.1875L35.875 31.125L34.6445 31.1836V35.5977C34.6445 35.9883 34.6641 36.3073 34.7031 36.5547C34.7552 36.8021 34.8529 37.0039 34.9961 37.1602C35.1393 37.3034 35.3411 37.4076 35.6016 37.4727C35.862 37.5247 36.207 37.5638 36.6367 37.5898V38H30.4648V37.5898C30.8815 37.5508 31.2135 37.4987 31.4609 37.4336C31.7214 37.3685 31.9167 37.2578 32.0469 37.1016C32.1771 36.9453 32.2617 36.7305 32.3008 36.457C32.3398 36.1706 32.3594 35.793 32.3594 35.3242V25.6758C32.3594 25.2852 32.3398 24.9727 32.3008 24.7383C32.2617 24.4909 32.1771 24.2956 32.0469 24.1523C31.9167 24.0091 31.7214 23.9049 31.4609 23.8398C31.2135 23.7747 30.8815 23.7227 30.4648 23.6836V23.2344H36.6172C37.7109 23.2344 38.6875 23.3841 39.5469 23.6836C40.4193 23.9701 41.0638 24.3607 41.4805 24.8555C41.7539 25.1549 41.9557 25.5065 42.0859 25.9102C42.2161 26.3008 42.2812 26.724 42.2812 27.1797C42.2812 28.1953 41.9622 28.9961 41.3242 29.582C40.6992 30.168 39.6771 30.6042 38.2578 30.8906L42.8477 36.5547C43.1602 36.9193 43.4531 37.1732 43.7266 37.3164C44.013 37.4596 44.3646 37.5508 44.7812 37.5898V38ZM34.6445 30.3633C35.1654 30.3503 35.6146 30.3307 35.9922 30.3047C36.3828 30.2786 36.7214 30.2396 37.0078 30.1875C37.3073 30.1224 37.5807 30.0443 37.8281 29.9531C38.0755 29.862 38.3294 29.7448 38.5898 29.6016C38.9935 29.3802 39.306 29.0547 39.5273 28.625C39.7487 28.1823 39.8594 27.681 39.8594 27.1211C39.8594 26.0664 39.5273 25.2982 38.8633 24.8164C38.2122 24.3216 37.1706 24.0742 35.7383 24.0742C35.2956 24.0742 35.0026 24.1328 34.8594 24.25C34.7161 24.3542 34.6445 24.5625 34.6445 24.875V30.3633Z" fill="#212121"/>
</svg>
